# xmcd
#
# Track frame offsets:
#	150
#	6847
#	10571
#	16208
#	19593
#	24017
#	28702
#	32526
#	37926
#	42070
#	45495
#	51327
#	59566
#	65536
#	72908
#	77550
#	81089
#	86676
#	90578
#	98080
#	105480
#	113469
#	118944
#	127326
#	135953
#	144027
#	150559
#	155448
#	158418
#	162755
#	171007
#	175129
#	182523
#	188655
#	194172
#	200624
#	206464
#	212428
#	217893
#	224160
#	230507
#	237941
#	243528
#	250723
#	254880
#	258797
#	265896
#	270896
#	275543
#	283700
#
# Disc length: 3906 seconds
#
# Revision: 1
# Processed by: cddbd v1.5.1PL0 Copyright (c) Steve Scherf et al.
# Submitted via: CDex 1.50Beta5
#
DISCID=9b0f4032
DTITLE=NHKおかあさんといっしょ - どうようセレクション50
DYEAR=1900
DGENRE=
TTITLE0=おはなしゆびさん
TTITLE1=ことりのうた
TTITLE2=かえるのがっしょう
TTITLE3=おつかいありさん
TTITLE4=まつぼっくり
TTITLE5=じょうじょうじのたぬきばやし
TTITLE6=どんぐりころころ
TTITLE7=ゆうやけこやけ
TTITLE8=そうさん
TTITLE9=おべんとう
TTITLE10=うさぎ
TTITLE11=うれしいひなまつり
TTITLE12=いとまき
TTITLE13=はるがきた
TTITLE14=やぎさんゆうびん
TTITLE15=チューリップ
TTITLE16=げんこつやまのたぬきさん
TTITLE17=ふしぎなポケット
TTITLE18=あめふりくまのこ
TTITLE19=アイアイ
TTITLE20=てをたたきましょう
TTITLE21=こいのぼり
TTITLE22=あかとんぼ
TTITLE23=きしゃポッポ
TTITLE24=とんでったバナナ
TTITLE25=かわいいかくれんぼ
TTITLE26=とんぼのめがね
TTITLE27=ぶんぶんぶん
TTITLE28=おうま
TTITLE29=おべんとうばこのうた
TTITLE30=しゃぼんだま
TTITLE31=めだかのがっこう
TTITLE32=あめふり
TTITLE33=むすんでひらいて
TTITLE34=かたつむり
TTITLE35=サッちゃん
TTITLE36=うみ
TTITLE37=おしょうがつ
TTITLE38=おおきなくりのきのしたで
TTITLE39=たなばたさま
TTITLE40=くつがなる
TTITLE41=ななつのこ
TTITLE42=いぬのおまわりさん
TTITLE43=おなかのへるうた
TTITLE44=ちょうちょう
TTITLE45=こぶたぬきつねこ
TTITLE46=おかあさん
TTITLE47=ゆき
TTITLE48=やまのおんがくか
TTITLE49=おもちゃのチャチャチャ
EXTD=
EXTT0=
EXTT1=
EXTT2=
EXTT3=
EXTT4=
EXTT5=
EXTT6=
EXTT7=
EXTT8=
EXTT9=
EXTT10=
EXTT11=
EXTT12=
EXTT13=
EXTT14=
EXTT15=
EXTT16=
EXTT17=
EXTT18=
EXTT19=
EXTT20=
EXTT21=
EXTT22=
EXTT23=
EXTT24=
EXTT25=
EXTT26=
EXTT27=
EXTT28=
EXTT29=
EXTT30=
EXTT31=
EXTT32=
EXTT33=
EXTT34=
EXTT35=
EXTT36=
EXTT37=
EXTT38=
EXTT39=
EXTT40=
EXTT41=
EXTT42=
EXTT43=
EXTT44=
EXTT45=
EXTT46=
EXTT47=
EXTT48=
EXTT49=
PLAYORDER=
